<svg xmlns="http://www.w3.org/2000/svg" width="500" height="500" version="1.1"><path fill="#FDFEFE" d="M0 0 C0.68384766 0.4846875 1.36769531 0.969375 2.07226562 1.46875 C10.31674307 7.35875807 18.03809654 13.59681194 25.40234375 20.5546875 C27.57123235 22.59637812 29.7790487 24.52770436 32.0625 26.4375 C47.96675611 40.38631479 60.83814257 58.54960147 71 77 C71.42732422 77.75796875 71.85464844 78.5159375 72.29492188 79.296875 C90.50442964 111.73821082 101.10018544 148.71637917 102 186 C102.03996094 187.30066406 102.07992188 188.60132813 102.12109375 189.94140625 C103.16117356 239.3156493 88.20302247 290.01647703 59 330 C58.37762451 330.85343994 58.37762451 330.85343994 57.74267578 331.72412109 C52.89114257 338.31407374 47.75520759 344.59138338 42.203125 350.609375 C40.73342532 352.20415551 39.28527458 353.8190649 37.859375 355.453125 C19.82696831 376.08012258 -2.88036149 391.35170204 -27 404 C-27.66660645 404.35304199 -28.33321289 404.70608398 -29.02001953 405.06982422 C-81.98636561 432.7384156 -147.19524555 435.9460436 -203.76123047 418.42919922 C-226.95643664 410.92775098 -249.27167245 400.4091053 -269 386 C-269.56895996 385.58508301 -270.13791992 385.17016602 -270.72412109 384.74267578 C-277.36905492 379.85066534 -283.68322927 374.66259606 -289.75 369.0625 C-291.72789558 367.24942906 -293.75196817 365.52960986 -295.8125 363.8125 C-315.85272856 346.28236067 -330.73581284 323.38715942 -343 300 C-343.35304199 299.33339355 -343.70608398 298.66678711 -344.06982422 297.97998047 C-372.08657695 244.34714458 -374.64070349 178.95833002 -356.90234375 121.80859375 C-349.59051677 99.10187044 -339.09367267 77.29645075 -325 58 C-324.58508301 57.43104004 -324.17016602 56.86208008 -323.74267578 56.27587891 C-318.85176241 49.63243525 -313.66483554 43.31968268 -308.06640625 37.25390625 C-306.23259442 35.2536994 -304.48962633 33.20656762 -302.75 31.125 C-292.89051434 19.89238962 -281.03504708 10.75950558 -269 2 C-268.40026367 1.55946289 -267.80052734 1.11892578 -267.18261719 0.66503906 C-242.48734337 -17.27860573 -213.89283382 -28.42943888 -184.37207031 -35.42382812 C-182.32444851 -35.92119201 -180.29290638 -36.48391461 -178.265625 -37.05859375 C-172.04777602 -38.6107055 -165.61571625 -39.03111227 -159.25 -39.625 C-158.55793457 -39.69003723 -157.86586914 -39.75507446 -157.15283203 -39.82208252 C-102.02227425 -44.92423323 -45.51848575 -32.48098091 0 0 Z" transform="translate(383,56)"/><path fill="#080606" d="M0 0 C2.73828125 1.6796875 2.73828125 1.6796875 5.3125 3.875 C6.60607422 4.95394531 6.60607422 4.95394531 7.92578125 6.0546875 C10.6566762 8.61586581 10.96362011 9.42631717 11.203125 13.203125 C9.94650333 36.69228399 -13.45496416 60.13226851 -28 77 C-28.92232422 78.07507813 -28.92232422 78.07507813 -29.86328125 79.171875 C-30.40339844 79.79578125 -30.94351563 80.4196875 -31.5 81.0625 C-32.03238281 81.68125 -32.56476563 82.3 -33.11328125 82.9375 C-34.59361326 84.55575114 -36.14940837 86.10501062 -37.73046875 87.625 C-48.40631002 98.07230103 -50.76272117 109.80751835 -51.05078125 124.609375 C-51.06070479 126.73962747 -51.03435482 128.87000145 -51 131 C-40.19689416 129.43740791 -30.28498297 119.78482144 -22 113 C-21.29875 112.45601563 -20.5975 111.91203125 -19.875 111.3515625 C-16.84855293 107.55589346 -15.54454325 103.10495172 -13.9375 98.5625 C-9.8455945 87.17531156 -9.8455945 87.17531156 -7 83 C-2.82924433 83.96248208 0.44115155 85.72672349 3.9375 88.125 C4.73027344 88.66382813 5.52304688 89.20265625 6.33984375 89.7578125 C8 92 8 92 8.06640625 95.3828125 C6.89723662 101.73645209 4.31617215 107.74725384 2 113.75 C1.08160042 116.16079889 0.16485964 118.57223054 -0.75 120.984375 C-1.15734375 122.04366211 -1.5646875 123.10294922 -1.984375 124.19433594 C-2.80519269 126.4618448 -3.47987536 128.64954546 -4 131 C2.73840407 127.55592681 8.26539044 122.90293276 14 118 C14.85078125 117.27425781 15.7015625 116.54851562 16.578125 115.80078125 C28.17931507 105.64061951 37.58666525 95.75829388 42.0078125 80.83203125 C43.03865079 77.88967785 44.15249373 75.51389534 46 73 C46.99 73 47.98 73 49 73 C49 73.66 49 74.32 49 75 C49.57363281 75.2784375 50.14726562 75.556875 50.73828125 75.84375 C55.03020878 78.03789603 58.3400458 79.84534676 61 84 C62.16365489 89.23003922 61.98076528 94.62507122 61.95336914 99.95507812 C62.01580813 102.69324018 62.51853415 105.30749483 63 108 C63.39072795 115.32387745 63.20085486 121.98477515 61 129 C62.81653893 127.67217459 64.62797917 126.3373737 66.4375 125 C67.44683594 124.2575 68.45617187 123.515 69.49609375 122.75 C70.04289795 122.32025879 70.58970215 121.89051758 71.15307617 121.44775391 C72.48758614 120.40166744 73.85136577 119.39256016 75.23168945 118.40771484 C82.49760877 112.76644027 84.72711419 106.21904412 87.3125 97.625 C87.71665086 96.34808463 88.12354072 95.07203284 88.53320312 93.796875 C89.32157493 91.33848384 90.10326445 88.8779372 90.87744141 86.41503906 C92.37920224 81.84639389 94.14654759 77.43641013 96 73 C91.71 73 87.42 73 83 73 C84.29414811 66.52925945 84.29414811 66.52925945 87 64 C90.13671875 63.390625 90.13671875 63.390625 93.6875 63.25 C94.86699219 63.19328125 96.04648437 63.1365625 97.26171875 63.078125 C98.16535156 63.05234375 99.06898438 63.0265625 100 63 C100.44484741 61.91114502 100.44484741 61.91114502 100.89868164 60.80029297 C102.26693028 57.48334263 103.66432653 54.17944136 105.0625 50.875 C105.76149414 49.16183594 105.76149414 49.16183594 106.47460938 47.4140625 C110.08555423 38.96396026 113.49302583 33.85179284 121.97265625 30.1015625 C123.33026031 29.59392531 124.69371433 29.10166561 126.0625 28.625 C126.74376953 28.36589844 127.42503906 28.10679687 128.12695312 27.83984375 C132.2135279 26.35595781 135.66171126 25.71574395 140 26 C139.40709006 29.57130343 138.45024166 32.48565688 136.85546875 35.73046875 C136.21061523 37.05981445 136.21061523 37.05981445 135.55273438 38.41601562 C135.10220703 39.33060547 134.65167969 40.24519531 134.1875 41.1875 C133.30281856 42.99193835 132.42129078 44.79792638 131.54296875 46.60546875 C130.9555188 47.79885864 130.9555188 47.79885864 130.35620117 49.01635742 C128.41890468 53.2784097 126.73873546 57.65316135 125 62 C132.26 62 139.52 62 147 62 C146.02627097 66.86864517 145.11377786 70.14768919 141 73 C137.39392191 73.86356275 133.88316284 73.88492791 130.1875 73.875 C128.71893555 73.9059375 128.71893555 73.9059375 127.22070312 73.9375 C124.81294934 73.98448056 122.4081172 74.004453 120 74 C112.55892429 92.78357131 105.87024249 111.1453414 102 131 C116.43478956 122.29000041 116.43478956 122.29000041 124.6796875 108.125 C129.79891584 96.00848323 139.30416912 88.42371432 151 83 C157.30011828 80.58944891 163.49110621 79.52593857 170.03125 81.6640625 C175.80992218 84.57874364 180.01964226 89.35303409 182.25 95.375 C181.86905514 100.89870049 179.8114703 104.04193469 176 108 C166.54618923 115.30521741 155.59660605 120.57340877 145 126 C145 128.31 145 130.62 145 133 C147.22855574 133.0814222 149.45797655 133.13938079 151.6875 133.1875 C152.92886719 133.22230469 154.17023438 133.25710938 155.44921875 133.29296875 C159.32238294 132.97340075 160.83234847 132.14003544 164 130 C165.1240625 129.54109375 166.248125 129.0821875 167.40625 128.609375 C171.18833141 126.91566028 174.28031158 124.80991222 177.5 122.25 C178.06678467 121.8068042 178.63356934 121.3636084 179.2175293 120.90698242 C182.84003984 118.03445899 186.19170807 115.02243549 189.375 111.6640625 C191.87360921 109.10539057 194.58894943 106.80870157 197.30078125 104.48046875 C198.57729445 103.36828828 199.80283014 102.19716986 201 101 C200.3503125 100.56429687 199.700625 100.12859375 199.03125 99.6796875 C197.77828125 98.78636719 197.77828125 98.78636719 196.5 97.875 C195.24703125 97.00488281 195.24703125 97.00488281 193.96875 96.1171875 C192 94 192 94 191.48046875 91.20703125 C192.1264658 87.2193352 193.74198966 84.21016759 195.8125 80.8125 C196.16892578 80.19697266 196.52535156 79.58144531 196.89257812 78.94726562 C198.65490062 75.96263506 200.36935863 73.28210213 203 71 C208.75 72.75 208.75 72.75 211 75 C211.06058594 75.9384375 211.12117188 76.876875 211.18359375 77.84375 C211.72882044 81.29892757 211.72882044 81.29892757 215.09765625 83.34375 C216.40940241 84.08035619 217.73171173 84.79838097 219.0625 85.5 C220.4296638 86.27901071 221.79556028 87.06024992 223.16015625 87.84375 C224.43965795 88.56329404 225.71956699 89.28211454 227 90 C232.77446495 93.27674784 232.77446495 93.27674784 235 96 C235.77400107 102.78658207 232.50059988 109.62090729 230 115.75 C229.26727045 117.57669988 228.53798162 119.40478448 227.8125 121.234375 C227.48894531 122.03069336 227.16539062 122.82701172 226.83203125 123.64746094 C225.97084341 126.08243925 225.4462208 128.45902043 225 131 C234.19247699 126.30162287 241.88152683 119.27497392 249.24609375 112.1171875 C251 111 251 111 253.09765625 111.1953125 C255 112 255 112 257 114 C256.91973809 117.09008366 255.84641959 118.16576092 253.734375 120.4453125 C252.74911427 121.34904371 251.75359776 122.24167654 250.75 123.125 C250.21640869 123.60219482 249.68281738 124.07938965 249.13305664 124.57104492 C227.98762121 143.24001567 227.98762121 143.24001567 216.3125 145.8125 C211.47463282 144.62585333 207.92492997 142.04496413 205 138 C203.46138947 132.26328018 204.43061183 128.03783861 206.1875 122.5625 C206.53107544 121.44307007 206.53107544 121.44307007 206.8815918 120.30102539 C208.47579766 115.25206213 210.35615159 110.60225464 213 106 C209.96824418 105.70153699 208.50546017 105.61157252 206.04296875 107.50390625 C205.12451172 108.52291016 205.12451172 108.52291016 204.1875 109.5625 C200.32679196 113.66764766 196.29295478 117.3543365 192 121 C191.08089844 121.79664063 190.16179687 122.59328125 189.21484375 123.4140625 C177.31569369 133.57823972 162.08156404 145.32728257 146 147 C145.19046875 147.10441406 144.3809375 147.20882812 143.546875 147.31640625 C137.56014092 147.7479653 133.84507426 146.44054399 129.05078125 142.85546875 C125.85169857 139.96106061 123.06771765 136.80297873 121 133 C121 132.01 121 131.02 121 130 C116.45210234 132.64235395 112.1807475 135.63114489 107.90429688 138.68359375 C103.59196082 141.71498738 99.37548907 144.47211354 94.1875 145.625 C88.45759264 144.50148875 84.23931607 140.35717481 80.29296875 136.203125 C78.54049573 133.21703804 78.32807679 130.4119986 78 127 C76.76636719 127.97839844 76.76636719 127.97839844 75.5078125 128.9765625 C54.23593158 145.69201164 54.23593158 145.69201164 40.4375 145.51953125 C33.81532779 144.51868022 28.73750251 140.7264195 24.0703125 136.078125 C23 134 23 134 23.8125 131.25 C24.204375 130.5075 24.59625 129.765 25 129 C25.90363281 129.05800781 26.80726563 129.11601562 27.73828125 129.17578125 C28.91777344 129.22089844 30.09726563 129.26601563 31.3125 129.3125 C32.48425781 129.37050781 33.65601563 129.42851562 34.86328125 129.48828125 C38.14788322 129.3344628 38.14788322 129.3344628 39.85546875 126.73046875 C41.4076984 123.02736799 42.1280546 119.9032074 42.09765625 115.890625 C42.09443359 115.13652344 42.09121094 114.38242187 42.08789062 113.60546875 C42.07951172 112.82816406 42.07113281 112.05085938 42.0625 111.25 C42.05798828 110.45722656 42.05347656 109.66445313 42.04882812 108.84765625 C42.03708565 106.89840492 42.01915146 104.94919262 42 103 C41.34 103 40.68 103 40 103 C39.63648438 103.87205078 39.63648438 103.87205078 39.265625 104.76171875 C37.77001265 107.40673689 36.07851827 108.86810804 33.75 110.8125 C30.90785482 113.26028054 28.31170797 115.65851009 25.9375 118.5625 C17.39771769 128.865933 3.62357486 140.21510105 -9 145 C-14.3664184 145.4365672 -16.78641069 144.3891914 -21 141 C-23.4375 138.8125 -23.4375 138.8125 -25 136 C-25.02591691 132.92107057 -24.604133 130.01409833 -24 127 C-24.42667969 127.32871094 -24.85335937 127.65742188 -25.29296875 127.99609375 C-29.6679249 131.32466864 -34.12051058 134.53687172 -38.625 137.6875 C-40.22214844 138.80705078 -40.22214844 138.80705078 -41.8515625 139.94921875 C-47.26941381 143.47821619 -51.41220094 146.02224468 -58 145 C-64.79444052 141.27954907 -69.76056326 135.35915511 -74 129 C-78.75412898 96.82205334 -59.01738375 57.42362397 -41 32 C-37.57886309 27.43502144 -33.87491773 23.18308497 -30 19 C-29.15566406 18.08605469 -28.31132812 17.17210937 -27.44140625 16.23046875 C-22.12732786 10.70084271 -16.5314149 6.03343516 -10 2 C-9.05253906 1.4121875 -9.05253906 1.4121875 -8.0859375 0.8125 C-5.17304087 -0.32211142 -3.10570206 -0.3700076 0 0 Z" transform="translate(218,159)"/><path fill="#060404" d="M0 0 C8.865409 5.37934987 15.77282767 12.60815534 20.4375 21.9375 C21.98023907 37.73955588 15.94178379 51.36681923 6.28125 63.6875 C2.5467496 68.01735554 2.5467496 68.01735554 0.4375 69.9375 C-0.2225 69.9375 -0.8825 69.9375 -1.5625 69.9375 C-1.5625 69.2775 -1.5625 68.6175 -1.5625 67.9375 C-2.10390625 67.70933594 -2.6453125 67.48117188 -3.203125 67.24609375 C-6.29303725 65.53231791 -8.68891502 63.3633087 -11.3125 61 C-12.29734375 60.12472656 -13.2821875 59.24945313 -14.296875 58.34765625 C-16.5625 55.9375 -16.5625 55.9375 -16.5625 52.9375 C-15.42637838 51.80137838 -14.2848932 50.67025245 -13.12109375 49.5625 C-5.31163354 41.4203059 1.64904284 29.22629837 1.5 17.75 C1.49097656 16.84894531 1.48195313 15.94789063 1.47265625 15.01953125 C1.46105469 14.33246094 1.44945312 13.64539063 1.4375 12.9375 C-5.45252712 10.64082429 -11.96480945 11.45861531 -18.3984375 14.6640625 C-22.0252055 16.79822562 -25.30191488 19.28661779 -28.5625 21.9375 C-29.36945313 22.53046875 -30.17640625 23.1234375 -31.0078125 23.734375 C-38.43926954 30.14315446 -44.89967467 40.20727356 -45.8671875 50.03125 C-46.13176615 56.81691428 -45.8785855 62.48560253 -41.5625 67.9375 C-38.17061576 71.37715725 -34.57811673 74.26042218 -30.5625 76.9375 C-30.5625 77.5975 -30.5625 78.2575 -30.5625 78.9375 C-31.75875 79.411875 -32.955 79.88625 -34.1875 80.375 C-46.26444482 85.79730175 -56.26593463 93.64093463 -65.5625 102.9375 C-66.31402344 103.68902344 -67.06554687 104.44054687 -67.83984375 105.21484375 C-78.22824092 116.24129986 -83.92177202 128.33913837 -83.86328125 143.46875 C-83.7985842 146.11234786 -83.7985842 146.11234786 -81.5625 147.9375 C-76.42015693 148.4226267 -73.78714397 147.78913468 -69.5625 144.9375 C-68.015625 144.3496875 -68.015625 144.3496875 -66.4375 143.75 C-51.85841801 137.62301511 -34.72219273 121.74356723 -25.5625 108.9375 C-21.8978521 110.53646194 -19.11874414 112.81833423 -16.0625 115.375 C-12.94570397 117.97375713 -9.83518865 120.53701375 -6.5625 122.9375 C-10.73724975 131.98612026 -18.88082728 137.96173066 -26.5625 143.9375 C-27.490625 144.68128906 -28.41875 145.42507813 -29.375 146.19140625 C-42.12734079 156.15417249 -56.51464567 165.84337359 -73.21875 165.4140625 C-83.18236473 163.99401461 -92.22542632 157.58853905 -98.27734375 149.703125 C-99.79980503 147.48457506 -101.2237494 145.27142804 -102.5625 142.9375 C-103.37460938 141.56658203 -103.37460938 141.56658203 -104.203125 140.16796875 C-105.82384388 136.31643279 -106.05893571 132.92361363 -106 128.8125 C-105.99170166 128.06331299 -105.98340332 127.31412598 -105.97485352 126.54223633 C-105.49783852 110.68530711 -96.86807232 96.66066405 -85.5625 85.9375 C-78.19310386 79.49770742 -70.35441794 74.27179221 -61.5625 69.9375 C-61.97242188 69.36902344 -62.38234375 68.80054688 -62.8046875 68.21484375 C-69.22068366 59.02062915 -70.71250598 51.06753705 -68.9375 40.0625 C-64.42047738 24.75993359 -53.40537875 11.77514564 -39.5625 3.9375 C-35.01654888 1.91323721 -30.3172768 0.39521447 -25.5625 -1.0625 C-18.00619268 -3.58126911 -7.23996126 -3.45029404 0 0 Z" transform="translate(141.5625,150.0625)"/><path fill="#0D0808" d="M0 0 C6.18457808 0 10.98937045 3.76190541 16 7 C15.45914863 11.95029239 13.91707516 15.47860498 11.5 19.8125 C10.8709375 20.95332031 10.241875 22.09414062 9.59375 23.26953125 C8 26 8 26 7 27 C1.15286008 26.76134123 -3.70591454 25.12189156 -8 21 C-9.74708728 14.88519452 -6.31420354 9.97686045 -3.5078125 4.57421875 C-2 2 -2 2 0 0 Z" transform="translate(228,204)"/><path fill="#EFF2F2" d="M0 0 C1.50591541 4.60692475 -0.27094547 7.59528208 -2.3125 11.75 C-2.67424316 12.49934814 -3.03598633 13.24869629 -3.40869141 14.02075195 C-11.77311969 30.94673198 -23.01467075 46.47029918 -35 61 C-36 59 -36 59 -35.43017578 57.20678711 C-35.1051709 56.4875708 -34.78016602 55.76835449 -34.4453125 55.02734375 C-34.08252197 54.21861816 -33.71973145 53.40989258 -33.34594727 52.57666016 C-32.94303467 51.7057373 -32.54012207 50.83481445 -32.125 49.9375 C-31.7137085 49.0407959 -31.30241699 48.1440918 -30.87866211 47.22021484 C-13.00770211 8.6718014 -13.00770211 8.6718014 0 0 Z" transform="translate(215,171)"/><path fill="#E8EDED" d="M0 0 C0.51117861 5.36737537 -0.6692577 7.81522122 -4 12 C-7.3438754 15.63093662 -10.80083508 19.35608135 -15 22 C-15.66 22 -16.32 22 -17 22 C-15.69696875 13.522632 -9.64326438 0 0 0 Z" transform="translate(382,251)"/><path fill="#013232" d="M0 0 C0.66 0.33 1.32 0.66 2 1 C-1.96 4.96 -5.92 8.92 -10 13 C-10 8.97698923 -8.67577112 7.95743123 -6 5 C-4.05056443 3.25501743 -2.04941287 1.63021478 0 0 Z" transform="translate(358,248)"/></svg>